<?xml version="1.0" encoding="UTF-8"?>
<svg width="148px" height="25px" viewBox="0 0 148 25" version="1.1" xmlns="http://www.w3.org/2000/svg" xmlns:xlink="http://www.w3.org/1999/xlink">
    <title>logo</title>
    <defs>
        <polygon id="path-1" points="0 25 148 25 148 0 0 0"></polygon>
    </defs>
    <g id="一次交付" stroke="none" stroke-width="1" fill="none" fill-rule="evenodd">
        <g id="用户管理" transform="translate(-28.000000, -20.000000)">
            <g id="logo" transform="translate(28.000000, 20.000000)">
                <mask id="mask-2" fill="white">
                    <use xlink:href="#path-1"></use>
                </mask>
                <g id="Clip-6"></g>
                <path d="M40.0358,4.6853 C44.3478,4.6853 47.8448,8.1813 47.8448,12.4943 C47.8448,16.8073 44.3478,20.3023 40.0358,20.3023 C37.8478,20.3023 35.8698,19.4033 34.4528,17.9543 C33.8248,17.3113 33.2118,16.3793 32.8438,15.7973 L32.8438,15.7973 L29.7498,10.8463 C29.4328,10.3293 29.0908,9.8013 28.6778,9.3473 C27.8198,8.4023 26.5828,7.8083 25.2068,7.8083 C22.6178,7.8083 20.5208,9.9063 20.5208,12.4943 C20.5208,15.0823 22.6178,17.1793 25.2068,17.1793 C26.5828,17.1793 27.8198,16.5853 28.6778,15.6413 C29.0908,15.1863 29.4328,14.6593 29.7498,14.1423 L29.7498,14.1423 L29.7658,14.1153 L31.5898,17.0323 C31.3418,17.3553 31.0738,17.6623 30.7898,17.9543 C29.3718,19.4033 27.3928,20.3023 25.2068,20.3023 C23.4478,20.3023 21.8258,19.7223 20.5208,18.7413 L20.5208,18.7413 L20.5208,24.9883 L17.3968,24.9883 L17.3968,12.4943 C17.3968,8.1813 20.8938,4.6853 25.2068,4.6853 C27.3928,4.6853 29.3718,5.5853 30.7898,7.0353 C31.4158,7.6763 31.9188,8.4103 32.3978,9.1913 L32.3978,9.1913 L35.4918,14.1423 C35.8068,14.6593 36.1508,15.1863 36.5638,15.6413 C37.4218,16.5853 38.6588,17.1793 40.0358,17.1793 C42.6228,17.1793 44.7218,15.0823 44.7218,12.4943 C44.7218,9.9063 42.6228,7.8083 40.0358,7.8083 C38.6588,7.8083 37.4218,8.4023 36.5638,9.3473 C36.1508,9.8013 35.8068,10.3293 35.4918,10.8463 L35.4918,10.8463 L35.4738,10.8723 L33.6518,7.9563 C33.9008,7.6323 34.1678,7.3253 34.4528,7.0353 C35.8698,5.5853 37.8478,4.6853 40.0358,4.6853 Z M67.1549,4.6855 C71.4679,4.6855 74.9649,8.1815 74.9649,12.4935 C74.9649,16.8065 71.4679,20.3035 67.1549,20.3035 C62.8429,20.3035 59.3459,16.8065 59.3459,12.4935 C59.3459,8.1815 62.8429,4.6855 67.1549,4.6855 Z M7.8083,4.6855 C12.1213,4.6855 15.6173,8.1815 15.6173,12.4935 L15.6173,12.4935 L15.6173,20.3035 L12.4943,20.3035 L12.4943,18.7415 C11.1883,19.7215 9.5663,20.3035 7.8083,20.3035 C3.4963,20.3035 -0.000699999998,16.8065 -0.000699999998,12.4935 C-0.000699999998,8.1815 3.4963,4.6855 7.8083,4.6855 Z M52.655,-0.000400000001 L52.655,20.3026 L49.531,20.3026 L49.531,-0.000400000001 L52.655,-0.000400000001 Z M57.66,-0.000400000001 L57.66,20.3026 L54.536,20.3026 L54.536,-0.000400000001 L57.66,-0.000400000001 Z M67.1549,7.8085 C64.5679,7.8085 62.4689,9.9065 62.4689,12.4935 C62.4689,15.0825 64.5679,17.1795 67.1549,17.1795 C69.7429,17.1795 71.8419,15.0825 71.8419,12.4935 C71.8419,9.9065 69.7429,7.8085 67.1549,7.8085 Z M7.8083,7.8085 C5.2213,7.8085 3.1223,9.9065 3.1223,12.4935 C3.1223,15.0825 5.2213,17.1795 7.8083,17.1795 C10.3963,17.1795 12.4943,15.0825 12.4943,12.4935 C12.4943,9.9065 10.3963,7.8085 7.8083,7.8085 Z" id="apollo" fill="#055FE7" mask="url(#mask-2)"></path>
                <path d="M84.8026948,4.4296965 C82.1508328,4.4296965 80,6.6363811 80,9.35939301 L80,15.5 C80,18.2230119 82.1508328,20.4296965 84.8026948,20.4296965 L143.197305,20.4296965 C145.849167,20.4296965 148,18.2230119 148,15.5 L148,9.35939301 C148,6.6363811 145.849167,4.4296965 143.197305,4.4296965 L84.8026948,4.4296965 Z M147,9.34108239 L147,15.5172802 C147,17.6749309 145.298552,19.4296965 143.208687,19.4296965 L84.7903145,19.4296965 C82.6994508,19.4296965 81,17.6749309 81,15.5172802 L81,9.34108239 C81,7.18343169 82.6994508,5.4296965 84.7903145,5.4296965 L143.208687,5.4296965 C145.298552,5.4296965 147,7.18343169 147,9.34108239 Z" id="圆角矩形" fill="#777777" mask="url(#mask-2)"></path>
                <path d="M88.27,17.05 L88.27,16.66 L92.99,16.66 L92.99,17.05 L93.95,17.05 L93.95,12.8 L90.13,12.8 L90.72,12.2 C90.2,11.82 89.58,11.44 88.84,11.06 C88.85,11.02 88.86,10.97 88.88,10.92 L90.87,10.92 L90.87,10.05 L89.08,10.05 C89.12,9.81 89.14,9.56 89.16,9.29 L90.59,9.29 L90.59,8.45 L87.85,8.45 C87.93,8.27 88.01,8.09 88.08,7.89 L87.23,7.71 C86.89,8.47 86.48,9.05 86.02,9.46 L86.49,10.05 L86.04,10.05 L86.04,10.92 L87.9,10.92 L87.88,10.96 C87.56,11.62 86.89,12.17 85.85,12.63 L86.49,13.4 C86.79,13.26 87.06,13.1 87.32,12.94 L87.32,17.05 L88.27,17.05 Z M94.68,12.24 L94.68,8.46 L91.18,8.46 L91.18,12.24 L94.68,12.24 Z M88.16,10.05 L86.72,10.05 C86.95,9.84 87.17,9.59 87.38,9.29 L88.25,9.29 C88.23,9.55 88.2,9.8 88.16,10.05 Z M93.75,11.41 L92.11,11.41 L92.11,9.3 L93.75,9.3 L93.75,11.41 Z M89.96,12.8 L87.52,12.8 C87.95,12.48 88.29,12.13 88.53,11.75 C89.11,12.11 89.58,12.46 89.96,12.8 Z M92.99,14.34 L88.27,14.34 L88.27,13.64 L92.99,13.64 L92.99,14.34 Z M92.99,15.82 L88.27,15.82 L88.27,15.16 L92.99,15.16 L92.99,15.82 Z M99.76,11.12 L100.54,10.56 C100.22,9.98 99.77,9.29 99.18,8.5 L98.45,8.96 C98.65,9.25 98.84,9.53 99.02,9.81 C98.21,9.91 97.45,9.99 96.75,10.03 C97.27,9.53 97.74,8.88 98.16,8.06 L97.25,7.79 C96.93,8.47 96.46,9.15 95.85,9.83 C95.73,9.93 95.59,10.01 95.42,10.07 L95.68,10.86 C97.14,10.78 98.39,10.66 99.43,10.5 C99.55,10.71 99.66,10.92 99.76,11.12 Z M103.31,12.23 C103.67,12.23 103.94,12.15 104.12,12 C104.3,11.83 104.44,11.33 104.52,10.5 L103.63,10.21 C103.61,10.77 103.55,11.11 103.47,11.23 C103.4,11.33 103.29,11.38 103.13,11.38 L101.94,11.38 C101.7,11.38 101.58,11.21 101.58,10.89 L101.58,9.89 C102.65,9.73 103.59,9.55 104.41,9.36 L104.1,8.52 C103.45,8.7 102.61,8.86 101.58,9.02 L101.58,7.84 L100.64,7.84 L100.64,11.09 C100.64,11.85 100.98,12.23 101.68,12.23 L103.31,12.23 Z M96.92,17.05 L96.92,15.18 L98.98,15.18 L98.98,15.74 C98.98,16 98.86,16.13 98.63,16.13 L97.92,16.09 L98.15,16.98 L98.93,16.98 C99.57,16.98 99.9,16.63 99.9,15.94 L99.9,11.28 L96,11.28 L96,17.05 L96.92,17.05 Z M98.98,12.88 L96.92,12.88 L96.92,12.11 L98.98,12.11 L98.98,12.88 Z M103.32,16.88 C103.69,16.88 103.96,16.8 104.13,16.65 C104.31,16.49 104.44,15.99 104.52,15.15 L103.66,14.87 C103.63,15.43 103.57,15.77 103.49,15.89 C103.42,15.98 103.3,16.03 103.14,16.03 L101.93,16.03 C101.69,16.03 101.58,15.94 101.58,15.76 L101.58,14.54 C102.58,14.44 103.53,14.28 104.41,14.04 L104.1,13.19 C103.36,13.41 102.52,13.58 101.58,13.68 L101.58,12.58 L100.64,12.58 L100.64,15.97 C100.64,16.57 100.98,16.88 101.66,16.88 L103.32,16.88 Z M98.98,14.39 L96.92,14.39 L96.92,13.66 L98.98,13.66 L98.98,14.39 Z M111.83,17 C112.62,17 113.02,16.61 113.02,15.85 L113.02,10.59 L114.05,10.59 L114.05,9.67 L113.02,9.67 L113.02,7.78 L112.06,7.78 L112.06,9.67 L109.26,9.67 L109.26,10.59 L112.06,10.59 L112.06,15.61 C112.06,15.95 111.87,16.13 111.5,16.13 C111.06,16.13 110.59,16.11 110.11,16.07 L110.31,17 L111.83,17 Z M105.43,16.42 C106.31,15.68 107.03,14.88 107.57,14 C107.88,14.45 108.16,14.89 108.41,15.33 L109.11,14.63 C108.78,14.12 108.43,13.61 108.05,13.09 C108.56,11.98 108.82,10.76 108.84,9.43 L108.84,8.73 L105.33,8.73 L105.33,9.65 L107.99,9.65 C107.94,10.59 107.76,11.47 107.44,12.29 C106.93,11.65 106.38,11.02 105.8,10.38 L105.16,10.98 C105.84,11.74 106.46,12.49 107,13.21 C106.49,14.11 105.79,14.91 104.89,15.59 L105.43,16.42 Z M110.68,14.26 L111.43,13.74 C111.08,13.12 110.58,12.4 109.93,11.6 L109.21,12.13 C109.82,12.9 110.31,13.61 110.68,14.26 Z M119.3,17 L119.3,16.56 L122.12,16.56 L122.12,17 L123.06,17 L123.06,12.95 L121.18,12.95 L121.18,11.56 L123.68,11.56 L123.68,10.64 L121.18,10.64 L121.18,9.17 C121.99,9.05 122.71,8.88 123.35,8.66 L122.89,7.87 C121.5,8.3 119.79,8.52 117.76,8.52 L118.04,9.37 C118.81,9.37 119.54,9.34 120.22,9.28 L120.22,10.64 L117.57,10.64 L117.57,11.56 L120.22,11.56 L120.22,12.95 L118.36,12.95 L118.36,17 L119.3,17 Z M116.73,10.02 L117.38,9.36 C116.93,8.86 116.38,8.37 115.73,7.88 L115.07,8.53 C115.78,9.05 116.33,9.55 116.73,10.02 Z M115.89,16.73 C116.6,16.27 117.27,15.74 117.9,15.15 L117.65,14.15 C117.31,14.48 116.99,14.77 116.69,15.03 L116.69,10.78 L114.38,10.78 L114.38,11.69 L115.78,11.69 L115.78,15.37 C115.78,15.57 115.69,15.74 115.53,15.88 L115.89,16.73 Z M122.12,15.67 L119.3,15.67 L119.3,13.82 L122.12,13.82 L122.12,15.67 Z M128.94,17.02 L128.94,13.56 L132.96,13.56 L132.96,12.65 L128.94,12.65 L128.94,9.11 L132.58,9.11 L132.58,8.18 L124.44,8.18 L124.44,9.11 L127.98,9.11 L127.98,12.65 L124.04,12.65 L124.04,13.56 L127.98,13.56 L127.98,17.02 L128.94,17.02 Z M130.98,12.21 C131.44,11.47 131.82,10.72 132.11,9.95 L131.24,9.54 C130.96,10.27 130.59,11.01 130.12,11.77 L130.98,12.21 Z M126,12.26 L126.89,11.82 C126.55,11 126.2,10.26 125.84,9.58 L124.95,10.01 C125.32,10.67 125.67,11.42 126,12.26 Z M141.61,12.62 L142.54,12.16 C141.81,10.95 141.04,9.85 140.23,8.85 L139.37,9.26 C139.7,9.68 140.03,10.12 140.35,10.6 C138.76,10.75 137.12,10.86 135.42,10.92 C136.26,10.16 137.08,9.22 137.89,8.1 L136.9,7.76 C135.56,9.72 134.51,10.79 133.75,10.96 L133.93,11.86 C136.49,11.76 138.82,11.62 140.91,11.44 C141.14,11.81 141.37,12.2 141.61,12.62 Z M135.54,17.04 L135.54,16.63 L140.46,16.63 L140.46,17.04 L141.42,17.04 L141.42,12.79 L134.58,12.79 L134.58,17.04 L135.54,17.04 Z M140.46,15.72 L135.54,15.72 L135.54,13.7 L140.46,13.7 L140.46,15.72 Z" id="智能对话平台" fill="#777777" fill-rule="nonzero" mask="url(#mask-2)"></path>
            </g>
        </g>
    </g>
</svg>